<svg width="43" height="43" viewBox="0 0 43 43" fill="none" xmlns="http://www.w3.org/2000/svg">
<g clip-path="url(#clip0_3320_1479)">
<path d="M29.4877 21.1336C29.3385 21.1336 29.1955 21.0744 29.09 20.9689C28.9845 20.8635 28.9253 20.7204 28.9253 20.5713V18.303H26.6581C26.509 18.303 26.3659 18.2437 26.2604 18.1382C26.155 18.0328 26.0957 17.8897 26.0957 17.7406V15.1C26.0957 14.9508 26.155 14.8078 26.2604 14.7023C26.3659 14.5968 26.509 14.5376 26.6581 14.5376H28.9253V12.27C28.9253 12.1209 28.9845 11.9778 29.09 11.8723C29.1955 11.7669 29.3385 11.7076 29.4877 11.7076H32.1287C32.2778 11.7076 32.4209 11.7669 32.5263 11.8723C32.6318 11.9778 32.6911 12.1209 32.6911 12.27V14.5376H34.9586C35.1078 14.5376 35.2508 14.5968 35.3563 14.7023C35.4617 14.8078 35.521 14.9508 35.521 15.1V17.7406C35.521 17.8897 35.4617 18.0328 35.3563 18.1382C35.2508 18.2437 35.1078 18.303 34.9586 18.303H32.6911V20.5713C32.6911 20.7204 32.6318 20.8635 32.5263 20.9689C32.4209 21.0744 32.2778 21.1336 32.1287 21.1336H29.4877ZM34.3962 17.1782V15.6623H32.1287C31.9795 15.6623 31.8365 15.6031 31.731 15.4976C31.6255 15.3922 31.5663 15.2491 31.5663 15.1V12.8324H30.0501V15.1C30.0501 15.2491 29.9908 15.3922 29.8854 15.4976C29.7799 15.6031 29.6368 15.6623 29.4877 15.6623H27.2205V17.1782H29.4877C29.6368 17.1782 29.7799 17.2374 29.8854 17.3429C29.9908 17.4484 30.0501 17.5914 30.0501 17.7406V20.0089H31.5663V17.7406C31.5663 17.5914 31.6255 17.4484 31.731 17.3429C31.8365 17.2374 31.9795 17.1782 32.1287 17.1782H34.3962ZM6.89011 9.92334H7.58185V7.01279C7.58274 6.48694 7.79202 5.98289 8.16385 5.61106C8.53568 5.23923 9.03974 5.02994 9.56558 5.02905H34.2005C34.7264 5.02994 35.2304 5.23923 35.6022 5.61106C35.9741 5.98289 36.1834 6.48694 36.1842 7.01279V9.92334H36.876C37.5303 9.92404 38.1575 10.1843 38.6202 10.6469C39.0828 11.1095 39.3431 11.7368 39.3438 12.3911V20.6856C39.3431 21.2998 39.1137 21.8917 38.7003 22.346C38.2869 22.8002 37.7191 23.0842 37.1077 23.1425L36.1842 23.9955V36.7542C36.1834 37.2801 35.9741 37.7841 35.6022 38.1559C35.2304 38.5278 34.7264 38.7371 34.2005 38.738H9.56558C9.03974 38.7371 8.53568 38.5278 8.16385 38.1559C7.79202 37.7841 7.58274 37.2801 7.58185 36.7542V23.9955L6.6584 23.1425C6.04699 23.0842 5.47922 22.8002 5.06582 22.346C4.65241 21.8917 4.42301 21.2998 4.42234 20.6856V12.3892C4.42353 11.7353 4.68397 11.1085 5.14656 10.6462C5.60915 10.184 6.23615 9.92404 6.89011 9.92334ZM35.0595 7.01279C35.0592 6.78507 34.9686 6.56676 34.8076 6.40574C34.6465 6.24472 34.4282 6.15413 34.2005 6.15383H9.56558C9.33787 6.15413 9.11956 6.24472 8.95854 6.40574C8.79752 6.56676 8.70692 6.78507 8.70663 7.01279V9.92334H9.89852V7.75402C9.89852 7.60486 9.95777 7.46182 10.0632 7.35635C10.1687 7.25088 10.3118 7.19163 10.4609 7.19163H33.3052C33.4543 7.19163 33.5974 7.25088 33.7029 7.35635C33.8083 7.46182 33.8676 7.60486 33.8676 7.75402V9.92334H35.0595V7.01279ZM19.0257 23.1534H12.5339L13.3261 27.9292C13.3456 28.045 13.3283 28.164 13.2767 28.2696C13.2251 28.3751 13.1418 28.4618 13.0384 28.5175C12.935 28.5733 12.8168 28.5953 12.7003 28.5804C12.5838 28.5655 12.4748 28.5145 12.3888 28.4346L11.0222 27.173V35.4506H32.7428V27.173L31.3762 28.4346C31.2901 28.5145 31.1812 28.5655 31.0647 28.5804C30.9482 28.5953 30.8299 28.5733 30.7265 28.5175C30.6232 28.4618 30.5398 28.3751 30.4882 28.2696C30.4366 28.164 30.4194 28.045 30.4389 27.9292L31.2322 23.1534H24.7404C24.0861 23.1526 23.4589 22.8923 22.9963 22.4297C22.5336 21.9671 22.2734 21.3399 22.2726 20.6856V12.3892C22.2738 11.7353 22.5342 11.1085 22.9968 10.6462C23.4594 10.184 24.0864 9.92404 24.7404 9.92334H32.7428V8.31641H11.0233V9.92334H19.0257C19.68 9.92404 20.3073 10.1843 20.7699 10.6469C21.2326 11.1095 21.4928 11.7368 21.4935 12.3911V20.6856C21.4927 21.3399 21.2325 21.9671 20.7698 22.4297C20.3072 22.8923 19.68 23.1526 19.0257 23.1534ZM36.876 22.0286C37.232 22.0282 37.5734 21.8866 37.8252 21.6348C38.077 21.383 38.2186 21.0417 38.219 20.6856V12.3892C38.2181 12.0335 38.0762 11.6926 37.8245 11.4413C37.5728 11.1899 37.2317 11.0485 36.876 11.0481H24.7404C24.3843 11.0485 24.0429 11.1901 23.7912 11.4419C23.5394 11.6937 23.3978 12.0351 23.3974 12.3911V20.6856C23.3978 21.0417 23.5394 21.383 23.7912 21.6348C24.0429 21.8866 24.3843 22.0282 24.7404 22.0286H31.8936C31.9752 22.0286 32.0559 22.0464 32.1299 22.0807C32.204 22.115 32.2697 22.165 32.3225 22.2272C32.3753 22.2895 32.414 22.3625 32.4357 22.4412C32.4574 22.5198 32.4618 22.6023 32.4485 22.6828L31.8186 26.4951L36.4947 22.1778C36.5985 22.0819 36.7346 22.0287 36.876 22.0286ZM8.70663 36.7542C8.70692 36.9819 8.79752 37.2002 8.95854 37.3613C9.11956 37.5223 9.33787 37.6129 9.56558 37.6132H34.2005C34.4282 37.6129 34.6465 37.5223 34.8076 37.3613C34.9686 37.2002 35.0592 36.9819 35.0595 36.7542V25.0329L33.8676 26.1333V36.013C33.8676 36.1621 33.8083 36.3052 33.7029 36.4107C33.5974 36.5161 33.4543 36.5754 33.3052 36.5754H10.4609C10.3118 36.5754 10.1687 36.5161 10.0632 36.4107C9.95777 36.3052 9.89852 36.1621 9.89852 36.013V26.1344L8.70663 25.0329V36.7542ZM5.54712 20.6856C5.54752 21.0417 5.68914 21.383 5.94091 21.6348C6.19268 21.8866 6.53405 22.0282 6.89011 22.0286C7.03154 22.0289 7.16769 22.0824 7.27141 22.1786L11.9475 26.4951L11.315 22.6821C11.3017 22.6016 11.306 22.5191 11.3278 22.4404C11.3495 22.3617 11.3881 22.2887 11.4409 22.2265C11.4937 22.1642 11.5594 22.1142 11.6335 22.0799C11.7076 22.0456 11.7882 22.0278 11.8699 22.0278H19.0257C19.3818 22.0275 19.7232 21.8858 19.9749 21.6341C20.2267 21.3823 20.3683 21.0409 20.3687 20.6849V12.3892C20.3678 12.0335 20.226 11.6926 19.9743 11.4413C19.7225 11.1899 19.3815 11.0485 19.0257 11.0481H6.89011C6.53405 11.0485 6.19268 11.1901 5.94091 11.4419C5.68914 11.6937 5.54752 12.0351 5.54712 12.3911V20.6856ZM8.80898 14.5368H11.075V12.27C11.075 12.1209 11.1343 11.9778 11.2398 11.8723C11.3452 11.7669 11.4883 11.7076 11.6374 11.7076H14.2784C14.4276 11.7076 14.5706 11.7669 14.6761 11.8723C14.7815 11.9778 14.8408 12.1209 14.8408 12.27V14.5376H17.108C17.2571 14.5376 17.4002 14.5968 17.5056 14.7023C17.6111 14.8078 17.6704 14.9508 17.6704 15.1V17.7406C17.6704 17.8897 17.6111 18.0328 17.5056 18.1382C17.4002 18.2437 17.2571 18.303 17.108 18.303H14.8408V20.5713C14.8408 20.7204 14.7815 20.8635 14.6761 20.9689C14.5706 21.0744 14.4276 21.1336 14.2784 21.1336H11.6374C11.4883 21.1336 11.3452 21.0744 11.2398 20.9689C11.1343 20.8635 11.075 20.7204 11.075 20.5713V18.303H8.80748C8.65833 18.303 8.51528 18.2437 8.40981 18.1382C8.30434 18.0328 8.24509 17.8897 8.24509 17.7406V15.1C8.24509 14.9508 8.30434 14.8078 8.40981 14.7023C8.51528 14.5968 8.65833 14.5376 8.80748 14.5376L8.80898 14.5368ZM9.37137 17.1774H11.6374C11.7866 17.1774 11.9296 17.2367 12.0351 17.3421C12.1406 17.4476 12.1998 17.5907 12.1998 17.7398V20.0089H13.716V17.7406C13.716 17.5914 13.7753 17.4484 13.8807 17.3429C13.9862 17.2374 14.1293 17.1782 14.2784 17.1782H16.5456V15.6623H14.2784C14.1293 15.6623 13.9862 15.6031 13.8807 15.4976C13.7753 15.3922 13.716 15.2491 13.716 15.1V12.8324H12.1998V15.1C12.1998 15.2491 12.1406 15.3922 12.0351 15.4976C11.9296 15.6031 11.7866 15.6623 11.6374 15.6623H9.36987L9.37137 17.1774ZM28.4011 24.8563H15.3649C15.2158 24.8563 15.0727 24.9155 14.9673 25.021C14.8618 25.1265 14.8026 25.2695 14.8026 25.4187C14.8026 25.5678 14.8618 25.7109 14.9673 25.8164C15.0727 25.9218 15.2158 25.9811 15.3649 25.9811H28.4011C28.5503 25.9811 28.6933 25.9218 28.7988 25.8164C28.9043 25.7109 28.9635 25.5678 28.9635 25.4187C28.9635 25.2695 28.9043 25.1265 28.7988 25.021C28.6933 24.9155 28.5503 24.8563 28.4011 24.8563ZM14.8026 27.9922C14.8026 28.1413 14.8618 28.2844 14.9673 28.3898C15.0727 28.4953 15.2158 28.5546 15.3649 28.5546H28.4011C28.5503 28.5546 28.6933 28.4953 28.7988 28.3898C28.9043 28.2844 28.9635 28.1413 28.9635 27.9922C28.9635 27.843 28.9043 27.7 28.7988 27.5945C28.6933 27.489 28.5503 27.4298 28.4011 27.4298H15.3649C15.2158 27.4298 15.0727 27.489 14.9673 27.5945C14.8618 27.7 14.8026 27.843 14.8026 27.9922ZM14.8026 30.5657C14.8026 30.7148 14.8618 30.8579 14.9673 30.9633C15.0727 31.0688 15.2158 31.1281 15.3649 31.1281H28.4011C28.5503 31.1281 28.6933 31.0688 28.7988 30.9633C28.9043 30.8579 28.9635 30.7148 28.9635 30.5657C28.9635 30.4165 28.9043 30.2735 28.7988 30.168C28.6933 30.0625 28.5503 30.0033 28.4011 30.0033H15.3649C15.2158 30.0033 15.0727 30.0625 14.9673 30.168C14.8618 30.2735 14.8026 30.4165 14.8026 30.5657ZM14.8026 33.1392C14.8026 33.2883 14.8618 33.4314 14.9673 33.5368C15.0727 33.6423 15.2158 33.7016 15.3649 33.7016H28.4011C28.5503 33.7016 28.6933 33.6423 28.7988 33.5368C28.9043 33.4314 28.9635 33.2883 28.9635 33.1392C28.9635 32.99 28.9043 32.847 28.7988 32.7415C28.6933 32.636 28.5503 32.5768 28.4011 32.5768H15.3649C15.2158 32.5768 15.0727 32.636 14.9673 32.7415C14.8618 32.847 14.8026 32.99 14.8026 33.1392Z" fill="#21529A" style="fill:#21529A;fill:color(display-p3 0.1294 0.3216 0.6039);fill-opacity:1;"/>
</g>
<defs>
<clipPath id="clip0_3320_1479">
<rect width="35.993" height="35.993" fill="white" style="fill:white;fill-opacity:1;" transform="matrix(-1 0 0 1 39.8789 3.88696)"/>
</clipPath>
</defs>
</svg>
