<svg width="42" height="35" viewBox="0 0 42 35" fill="none" xmlns="http://www.w3.org/2000/svg">
<path fill-rule="evenodd" clip-rule="evenodd" d="M3.09347 8.03278L6.07495 5.31919C6.57619 4.86117 7.22001 4.64944 7.85088 4.67969C8.48606 4.70994 9.10396 4.97784 9.56199 5.48339L13.0101 9.2729C13.0101 9.2729 13.0317 9.29882 13.0447 9.31179C13.4898 9.81302 13.6929 10.4439 13.6626 11.0661C13.6324 11.6927 13.3688 12.3062 12.8762 12.7643C12.8762 12.7643 12.8546 12.7859 12.8416 12.7945L10.7978 14.6568C10.478 14.9464 10.3095 15.3396 10.2922 15.7371C10.275 16.1389 10.4089 16.5451 10.6941 16.8606L17.9966 24.8803C18.2861 25.2001 18.6793 25.3686 19.0768 25.3859C19.4787 25.4031 19.8848 25.2735 20.2003 24.9797L22.2657 23.1001C22.7669 22.642 23.4108 22.4303 24.0416 22.4606C24.6768 22.4908 25.2947 22.7587 25.7527 23.2643L29.2009 27.0538C29.2009 27.0538 29.2225 27.0797 29.2354 27.0927C29.6805 27.5939 29.8836 28.2248 29.8533 28.847C29.8231 29.4735 29.5595 30.0871 29.0669 30.5451C29.0669 30.5451 29.0453 30.5667 29.0324 30.5754L26.0725 33.2717C22.8447 36.2099 17.7891 34.771 13.062 31.3488C11.2645 30.0482 9.50581 28.4538 7.92001 26.7124C6.33421 24.971 4.91261 23.0741 3.78483 21.1599C0.824951 16.1346 -0.134308 10.971 3.09347 8.03278ZM29.0453 6.00191C28.5441 6.00191 28.0904 6.205 27.7577 6.53339C27.4293 6.86179 27.2262 7.31549 27.2262 7.82105C27.2262 8.3266 27.4293 8.78031 27.7577 9.1087C28.0861 9.4371 28.5398 9.64018 29.0453 9.64018C29.5509 9.64018 30.0046 9.4371 30.333 9.1087C30.6614 8.78031 30.8645 8.3266 30.8645 7.82105C30.8645 7.31549 30.6614 6.86179 30.333 6.53339C30.0046 6.205 29.5509 6.00191 29.0453 6.00191ZM29.6891 7.17722C29.5249 7.01302 29.2959 6.90932 29.0453 6.90932C28.7947 6.90932 28.5657 7.01302 28.4015 7.17722C28.2373 7.34142 28.1336 7.57043 28.1336 7.82105C28.1336 8.07166 28.2373 8.30068 28.4015 8.46487C28.5657 8.62907 28.7947 8.73277 29.0453 8.73277C29.2959 8.73277 29.5249 8.62907 29.6891 8.46487C29.8533 8.30068 29.957 8.07166 29.957 7.82105C29.957 7.57043 29.8533 7.34142 29.6891 7.17722ZM23.9249 6.00191C23.4237 6.00191 22.97 6.205 22.6373 6.53339C22.3089 6.86179 22.1058 7.31549 22.1058 7.82105C22.1058 8.3266 22.3089 8.78031 22.6373 9.1087C22.9657 9.4371 23.4194 9.64018 23.9249 9.64018C24.4305 9.64018 24.8842 9.4371 25.2126 9.1087C25.541 8.78031 25.7441 8.3266 25.7441 7.82105C25.7441 7.31549 25.541 6.86179 25.2126 6.53339C24.8842 6.205 24.4305 6.00191 23.9249 6.00191ZM24.5688 7.17722C24.4046 7.01302 24.1756 6.90932 23.9249 6.90932C23.6743 6.90932 23.4453 7.01302 23.2811 7.17722C23.1169 7.34142 23.0132 7.57043 23.0132 7.82105C23.0132 8.07166 23.1126 8.30068 23.2811 8.46487C23.4496 8.62907 23.6743 8.73277 23.9249 8.73277C24.1756 8.73277 24.4046 8.62907 24.5688 8.46487C24.733 8.30068 24.8367 8.07166 24.8367 7.82105C24.8367 7.57043 24.733 7.34142 24.5688 7.17722ZM18.8046 6.00191C18.3033 6.00191 17.8453 6.205 17.5169 6.53339C17.1885 6.86179 16.9854 7.31549 16.9854 7.82105C16.9854 8.3266 17.1885 8.78031 17.5169 9.1087C17.8453 9.4371 18.299 9.64018 18.8046 9.64018C19.3101 9.64018 19.7595 9.4371 20.0922 9.1087C20.4249 8.78031 20.6237 8.3266 20.6237 7.82105C20.6237 7.31549 20.4206 6.86179 20.0922 6.53339C19.7638 6.205 19.3101 6.00191 18.8046 6.00191ZM19.4484 7.17722C19.2842 7.01302 19.0552 6.90932 18.8046 6.90932C18.554 6.90932 18.3249 7.01302 18.1608 7.17722C17.9966 7.34142 17.8929 7.57043 17.8929 7.82105C17.8929 8.07166 17.9966 8.30068 18.1608 8.46487C18.3249 8.62907 18.554 8.73277 18.8046 8.73277C19.0552 8.73277 19.2842 8.62907 19.4484 8.46487C19.6126 8.30068 19.7163 8.07166 19.7163 7.82105C19.7163 7.57043 19.6169 7.34142 19.4484 7.17722ZM32.1694 10.7636C32.4459 10.3402 32.6663 9.89512 32.8219 9.43278C32.9904 8.91858 33.0811 8.38278 33.0811 7.82105C33.0811 5.97599 32.0743 4.29944 30.4496 3.0766C28.7861 1.82784 26.483 1.05438 23.9293 1.05438C21.3756 1.05438 19.0725 1.82784 17.4089 3.0766C15.7842 4.29944 14.7774 5.97599 14.7774 7.82105C14.7774 9.22105 15.3564 10.526 16.3416 11.6019C17.3787 12.734 18.8694 13.6241 20.6194 14.1297C20.8527 14.1945 20.991 14.4322 20.9391 14.6655C20.7706 15.9143 20.304 16.692 19.7638 17.2408C20.4077 17.0852 21.0688 16.8649 21.7083 16.5927C22.8317 16.113 23.8817 15.4649 24.6509 14.6871C24.733 14.605 24.8324 14.5618 24.9404 14.5531C25.2688 14.5272 25.5799 14.4883 25.8824 14.4408C26.0725 14.4106 26.2626 14.376 26.4484 14.3328V12.1161C26.4484 11.7445 26.5996 11.4075 26.8416 11.1655C27.0836 10.9235 27.4206 10.7723 27.7922 10.7723H32.1608L32.1694 10.7636ZM26.4527 15.2575V19.3408C26.4527 19.7124 26.604 20.0494 26.8459 20.2914C27.0879 20.5334 27.4249 20.6846 27.7966 20.6846H28.4966V22.668C28.4966 22.7457 28.5182 22.8235 28.557 22.897C28.6824 23.113 28.9632 23.1865 29.1793 23.0612L33.2929 20.6846H38.6206C38.9922 20.6846 39.3293 20.5334 39.5712 20.2914C39.8132 20.0494 39.9645 19.7124 39.9645 19.3408V12.1118C39.9645 11.7402 39.8132 11.4031 39.5712 11.1612C39.3293 10.9192 38.9922 10.768 38.6206 10.768H33.2237C33.4052 10.4309 33.5564 10.0809 33.6774 9.72228C33.8805 9.11302 33.9885 8.47784 33.9885 7.82537C33.9885 5.68216 32.8435 3.74636 30.9898 2.355C29.1749 0.989565 26.6774 0.146973 23.9249 0.146973C21.1725 0.146973 18.6749 0.989565 16.8601 2.355C15.0064 3.74636 13.8614 5.68216 13.8614 7.82537C13.8614 9.4587 14.5268 10.9754 15.6675 12.2198C16.7391 13.3908 18.2299 14.3241 19.9756 14.8902C19.6731 16.342 18.8003 16.921 18.1089 17.3791C17.9966 17.4525 17.8885 17.526 17.7891 17.5951C17.5817 17.7377 17.5342 18.0229 17.6768 18.2303C17.7719 18.3686 17.9361 18.4377 18.0916 18.4204C19.3058 18.347 20.7317 17.997 22.0669 17.4266C23.2336 16.9297 24.3354 16.2556 25.1824 15.4433C25.4632 15.4173 25.7441 15.3785 26.0293 15.3352C26.1719 15.3136 26.3145 15.2877 26.457 15.2575H26.4527ZM29.2743 13.797H37.1472C37.3978 13.797 37.6009 13.5939 37.6009 13.3433C37.6009 13.0927 37.3978 12.8896 37.1472 12.8896H29.2743C29.0237 12.8896 28.8206 13.0927 28.8206 13.3433C28.8206 13.5939 29.0237 13.797 29.2743 13.797ZM29.2743 15.9359H37.1472C37.3978 15.9359 37.6009 15.7328 37.6009 15.4822C37.6009 15.2315 37.3978 15.0285 37.1472 15.0285H29.2743C29.0237 15.0285 28.8206 15.2315 28.8206 15.4822C28.8206 15.7328 29.0237 15.9359 29.2743 15.9359ZM29.2743 18.0748H37.1472C37.3978 18.0748 37.6009 17.8717 37.6009 17.621C37.6009 17.3704 37.3978 17.1673 37.1472 17.1673H29.2743C29.0237 17.1673 28.8206 17.3704 28.8206 17.621C28.8206 17.8717 29.0237 18.0748 29.2743 18.0748ZM27.8009 19.7772H28.9546C29.2052 19.7772 29.4083 19.9803 29.4083 20.2309V21.8815L32.9169 19.855C32.9904 19.8075 33.0768 19.7772 33.1719 19.7772H38.6206C38.7416 19.7772 38.8496 19.7297 38.9274 19.6476C39.0052 19.5698 39.057 19.4575 39.057 19.3408V12.1118C39.057 11.9908 39.0095 11.8828 38.9274 11.805C38.8453 11.7272 38.7416 11.6754 38.6206 11.6754H27.7966C27.6756 11.6754 27.5675 11.7229 27.4898 11.805C27.412 11.8828 27.3601 11.9951 27.3601 12.1118V19.3408C27.3601 19.4618 27.4077 19.5698 27.4898 19.6476C27.5719 19.7254 27.6799 19.7772 27.7966 19.7772H27.8009ZM28.1768 30.1476L22.1533 24.4525L20.8268 25.6624C20.3256 26.1204 19.6817 26.3322 19.0509 26.3019C18.4157 26.2717 17.7978 26.0038 17.3398 25.4982L10.0373 17.4785C9.57927 16.9772 9.36754 16.3334 9.39779 15.7025C9.42804 15.0673 9.69594 14.4494 10.2015 13.9914L11.528 12.7815L6.42063 6.25253L3.71569 8.71549C0.872482 11.3038 1.82742 16.0439 4.58421 20.7149C5.68174 22.5729 7.06446 24.418 8.61137 26.1161C10.1583 27.8143 11.8651 29.3612 13.6151 30.6272C18.0095 33.8075 22.6373 35.2031 25.4805 32.6149L28.1811 30.1519L28.1768 30.1476ZM22.8274 23.8389L28.7861 29.4692C28.8941 29.2661 28.9546 29.0414 28.9632 28.8124C28.9805 28.4192 28.8552 28.0173 28.5743 27.7019L25.0959 23.8822C24.8064 23.5624 24.4132 23.3939 24.0157 23.3766C23.6138 23.3593 23.2077 23.4889 22.8922 23.7785L22.8317 23.8346L22.8274 23.8389ZM7.14223 5.70376L12.1935 12.1593L12.2367 12.1204L12.254 12.1075C12.5737 11.818 12.7422 11.4248 12.7595 11.0272C12.7768 10.634 12.6515 10.2322 12.3706 9.91673L8.89223 6.09697C8.60273 5.77722 8.20952 5.6087 7.81199 5.59142C7.58298 5.58278 7.35396 5.61734 7.13791 5.70808L7.14223 5.70376Z" fill="#21529A" style="fill:#21529A;fill:color(display-p3 0.1294 0.3216 0.6039);fill-opacity:1;"/>
</svg>
