<svg width="47" height="41" viewBox="0 0 47 41" fill="none" xmlns="http://www.w3.org/2000/svg">
<path fill-rule="evenodd" clip-rule="evenodd" d="M5.74239 11.5548L8.59105 14.408C8.90098 14.7184 9.39848 14.7184 9.70838 14.408L16.2409 7.86519C16.5469 7.55674 16.5469 7.0545 16.2409 6.74609C15.9329 6.43962 15.4315 6.43962 15.1235 6.74609L9.14999 12.7291L6.86003 10.4355C6.55206 10.127 6.05062 10.127 5.74269 10.4355C5.43473 10.7439 5.43442 11.2464 5.74239 11.5548Z" fill="#21529A" style="fill:#21529A;fill:color(display-p3 0.1294 0.3216 0.6039);fill-opacity:1;"/>
<path fill-rule="evenodd" clip-rule="evenodd" d="M5.74239 31.7289L8.59105 34.582C8.90098 34.8925 9.39848 34.8925 9.70838 34.582L16.2409 28.0393C16.5469 27.7308 16.5469 27.2305 16.2409 26.9221C15.9329 26.6137 15.4315 26.6137 15.1235 26.9221L9.14999 32.9051L6.86003 30.6095C6.55206 30.303 6.05062 30.303 5.74269 30.6095C5.43473 30.918 5.43442 31.4205 5.74239 31.7289Z" fill="#21529A" style="fill:#21529A;fill:color(display-p3 0.1294 0.3216 0.6039);fill-opacity:1;"/>
<path fill-rule="evenodd" clip-rule="evenodd" d="M20.0553 8.51378H32.1408C32.5771 8.51378 32.9305 8.15985 32.9305 7.72288C32.9305 7.28789 32.5771 6.93396 32.1408 6.93396H20.0553C19.621 6.93396 19.2656 7.28789 19.2656 7.72288C19.2656 8.15985 19.621 8.51378 20.0553 8.51378Z" fill="#21529A" style="fill:#21529A;fill:color(display-p3 0.1294 0.3216 0.6039);fill-opacity:1;"/>
<path fill-rule="evenodd" clip-rule="evenodd" d="M29.8266 19.0209C29.9075 19.8968 30.1543 20.7253 30.5372 21.4727H3.50567C2.87789 21.4727 2.27579 21.7218 1.82964 22.1687C1.38546 22.6136 1.13672 23.2166 1.13672 23.8454V36.8221C1.13672 37.4529 1.38546 38.054 1.82964 38.5008C2.27579 38.9457 2.87789 39.1948 3.50567 39.1948H44.5675C45.0038 39.1948 45.3571 38.8409 45.3571 38.4039V32.3911C45.3571 28.7273 43.1244 25.5856 39.9461 24.261C41.9696 23.0885 43.3317 20.8977 43.3317 18.3904C43.3317 15.4997 41.5214 13.03 38.9728 12.0551V3.67188C38.9728 3.04114 38.7241 2.43808 38.2799 1.99321C37.8357 1.54833 37.2336 1.29919 36.6039 1.29919H3.50577C2.87799 1.29919 2.27589 1.54833 1.82974 1.99321C1.38556 2.44006 1.13682 3.04114 1.13682 3.67188V16.6486C1.13682 17.9575 2.19892 19.0213 3.50577 19.0213L29.8266 19.0209ZM31.6586 23.0545H3.50557C3.29631 23.0545 3.09495 23.1375 2.94688 23.2878C2.79882 23.4361 2.7159 23.6358 2.7159 23.8454V36.8222C2.7159 37.0337 2.79882 37.2334 2.94688 37.3817C3.09494 37.53 3.2963 37.6131 3.50557 37.6131H27.7697V34.3961H20.0546C19.6183 34.3961 19.265 34.0422 19.265 33.6052C19.265 33.1682 19.6183 32.8143 20.0546 32.8143H27.7697V32.3912C27.7697 31.0684 28.0619 29.8128 28.5811 28.6898H20.0549C19.6186 28.6898 19.2652 28.3359 19.2652 27.8989C19.2652 27.4639 19.6186 27.108 20.0549 27.108H29.5287C30.4624 25.8584 31.7239 24.8698 33.1808 24.2608C32.6162 23.9326 32.1027 23.5251 31.6586 23.0545ZM43.7775 32.3888V37.6125H29.3485V32.3909C29.3485 28.4008 32.5782 25.1678 36.5602 25.1678H36.5661C40.5499 25.1678 43.7775 28.4005 43.7775 32.3888ZM36.5643 13.1938C39.4268 13.1938 41.7524 15.521 41.7524 18.3901C41.7524 21.2571 39.4269 23.5865 36.5643 23.5865C33.6998 23.5865 31.3761 21.2573 31.3761 18.3901C31.3761 15.5211 33.6996 13.1938 36.5643 13.1938ZM37.3934 11.6614V3.67147C37.3934 3.45991 37.3124 3.26021 37.1644 3.1119C37.0143 2.96361 36.815 2.88056 36.6037 2.88056H3.5056C3.29635 2.88056 3.09499 2.96361 2.94691 3.1119C2.79885 3.26019 2.71594 3.45989 2.71594 3.67147V16.6482C2.71594 17.0852 3.06931 17.4391 3.50559 17.4391H29.862C30.3259 14.147 33.1528 11.6121 36.5643 11.6121C36.8446 11.6121 37.1229 11.6298 37.3934 11.6614ZM20.0544 14.2219H27.4041C27.8384 14.2219 28.1938 13.868 28.1938 13.431C28.1938 12.9941 27.8384 12.6401 27.4041 12.6401H20.0544C19.6181 12.6401 19.2648 12.9941 19.2648 13.431C19.2648 13.868 19.6181 14.2219 20.0544 14.2219Z" fill="#21529A" style="fill:#21529A;fill:color(display-p3 0.1294 0.3216 0.6039);fill-opacity:1;"/>
</svg>
