<svg width="38" height="37" viewBox="0 0 38 37" fill="none" xmlns="http://www.w3.org/2000/svg">
<g clip-path="url(#clip0_3320_1485)">
<path d="M21.0839 31.127H2.375C1.72008 31.127 1.1875 30.5999 1.1875 29.9524V2.93649C1.1875 2.28896 1.72008 1.76188 2.375 1.76188H13.2167C13.6412 1.76188 14.0349 1.98786 14.2451 2.35263L16.1095 5.57705C16.2204 5.76864 16.4418 5.87299 16.625 5.87299H34.4375V21.2369C34.4375 21.5615 34.7031 21.8242 35.0312 21.8242C35.3594 21.8242 35.625 21.5615 35.625 21.2369V2.93649C35.625 1.64087 34.5598 0.58728 33.25 0.58728H2.375C1.06544 0.58728 0 1.64087 0 2.93649V29.9524C0 31.248 1.06544 32.3016 2.375 32.3016H21.0839C21.4121 32.3016 21.6777 32.0389 21.6777 31.7143C21.6777 31.3896 21.4121 31.127 21.0839 31.127ZM34.4375 2.93649V4.69839H16.9694L15.2763 1.77049C15.2746 1.76748 15.2723 1.76489 15.2705 1.76188H33.25C33.9046 1.76188 34.4375 2.28896 34.4375 2.93649ZM22.9185 18.3239L16.4164 13.499L16.4722 13.0388C16.5856 12.1068 16.3104 11.1513 15.717 10.4171L14.4909 8.90184C14.1424 8.46997 13.6217 8.2222 13.0625 8.2222C12.5033 8.2222 11.9826 8.46997 11.6344 8.90127L10.4077 10.4171C9.81456 11.1513 9.53943 12.1068 9.65279 13.0388L9.7086 13.499L3.20619 18.3239C3.0018 18.4753 2.9183 18.7397 2.99919 18.9795L3.59294 20.7414C3.67528 20.9851 3.90547 21.1428 4.15596 21.1428C4.20003 21.1428 4.24496 21.1382 4.2899 21.1279L10.4631 19.7182L10.7293 21.913L7.93271 24.2153C7.80428 24.3208 7.72687 24.4751 7.71933 24.6397C7.71179 24.8049 7.7747 24.9655 7.8927 25.0819L9.0802 26.2565C9.19269 26.3678 9.34402 26.4285 9.5 26.4285C9.53856 26.4285 9.57741 26.4251 9.61626 26.4171L11.3984 26.0655C11.7359 26.6358 12.3571 27.0159 13.0625 27.0159C13.7679 27.0159 14.3891 26.6358 14.7266 26.0655L16.5087 26.4171C16.5476 26.4251 16.5864 26.4285 16.625 26.4285C16.781 26.4285 16.9323 26.3678 17.0448 26.2565L18.2323 25.0819C18.3503 24.9655 18.4132 24.8049 18.4057 24.6397C18.3981 24.4751 18.3207 24.3208 18.1923 24.2153L15.3957 21.913L15.6619 19.7182L21.8354 21.1279C21.88 21.1382 21.9247 21.1428 21.9693 21.1428C22.2192 21.1428 22.45 20.9851 22.5318 20.7414L23.1255 18.9795C23.2067 18.7397 23.1232 18.4753 22.9185 18.3239ZM4.5488 19.8633L4.2612 19.0093L9.872 14.8459L10.3207 18.5449L4.5488 19.8633ZM9.1924 24.7062L10.8978 23.3023L11.0951 24.9279L9.6954 25.204L9.1924 24.7062ZM13.0625 25.8412C12.6856 25.8412 12.3679 25.5625 12.3229 25.1926L10.8316 12.8988C10.7562 12.2771 10.9397 11.6405 11.3352 11.1513L12.5618 9.63482C12.6842 9.48341 12.8665 9.3968 13.0625 9.3968C13.2585 9.3968 13.4408 9.48341 13.5635 9.6354L14.7895 11.1513C15.1853 11.6405 15.3688 12.2771 15.2934 12.8988L13.8021 25.1926C13.7571 25.5625 13.4394 25.8412 13.0625 25.8412ZM16.9326 24.7062L16.4296 25.204L15.0299 24.9279L15.2272 23.3023L16.9326 24.7062ZM21.5762 19.8633L15.8043 18.5449L16.253 14.8459L21.8638 19.0093L21.5762 19.8633ZM12.4688 3.52379C12.7967 3.52379 13.0625 3.78672 13.0625 4.11109C13.0625 4.43542 12.7967 4.69839 12.4688 4.69839C12.1408 4.69839 11.875 4.43542 11.875 4.11109C11.875 3.78672 12.1408 3.52379 12.4688 3.52379ZM14.076 13.3359C13.9601 13.4506 13.8082 13.5079 13.6562 13.5079C13.5043 13.5079 13.3524 13.4506 13.2365 13.3359L13.0625 13.1638L12.8885 13.3359C12.6566 13.5653 12.2809 13.5653 12.049 13.3359C11.817 13.1064 11.817 12.7348 12.049 12.5054L12.6427 11.9181C12.8746 11.6887 13.2504 11.6887 13.4823 11.9181L14.076 12.5054C14.308 12.7348 14.308 13.1064 14.076 13.3359ZM32.0625 10.5714C32.3907 10.5714 32.6562 10.3087 32.6562 9.98411V8.2222C32.6562 7.89758 32.3907 7.6349 32.0625 7.6349H22.5625C22.2343 7.6349 21.9688 7.89758 21.9688 8.2222V9.98411C21.9688 10.3087 22.2343 10.5714 22.5625 10.5714C22.8901 10.5714 23.1562 10.8347 23.1562 11.1587C23.1562 11.4828 22.8901 11.746 22.5625 11.746C22.2343 11.746 21.9688 12.0087 21.9688 12.3333V14.0952C21.9688 14.4198 22.2343 14.6825 22.5625 14.6825H32.0625C32.3907 14.6825 32.6562 14.4198 32.6562 14.0952V12.3333C32.6562 12.0087 32.3907 11.746 32.0625 11.746C31.7349 11.746 31.4688 11.4828 31.4688 11.1587C31.4688 10.8347 31.7349 10.5714 32.0625 10.5714ZM31.4688 9.49717C30.7776 9.73978 30.2812 10.393 30.2812 11.1587C30.2812 11.9244 30.7776 12.5776 31.4688 12.8202V13.5079H23.1562V12.8202C23.8474 12.5776 24.3438 11.9244 24.3438 11.1587C24.3438 10.393 23.8474 9.73978 23.1562 9.49717V8.8095H31.4688V9.49717ZM30.2812 21.7301C26.0253 21.7301 22.5625 25.1553 22.5625 29.3651C22.5625 33.5748 26.0253 37 30.2812 37C34.5372 37 38 33.5748 38 29.3651C38 25.1553 34.5372 21.7301 30.2812 21.7301ZM30.2812 35.8254C26.6799 35.8254 23.75 32.9273 23.75 29.3651C23.75 25.8028 26.6799 22.9047 30.2812 22.9047C33.8826 22.9047 36.8125 25.8028 36.8125 29.3651C36.8125 32.9273 33.8826 35.8254 30.2812 35.8254ZM30.2812 24.0793C27.3345 24.0793 24.9375 26.4503 24.9375 29.3651C24.9375 32.2798 27.3345 34.6508 30.2812 34.6508C33.228 34.6508 35.625 32.2798 35.625 29.3651C35.625 26.4503 33.228 24.0793 30.2812 24.0793ZM30.2812 33.4762C27.9897 33.4762 26.125 31.6317 26.125 29.3651C26.125 27.0984 27.9897 25.2539 30.2812 25.2539C32.5728 25.2539 34.4375 27.0984 34.4375 29.3651C34.4375 31.6317 32.5728 33.4762 30.2812 33.4762ZM32.6562 17.0317C32.6562 17.3563 32.3907 17.619 32.0625 17.619H25.5312C25.2031 17.619 24.9375 17.3563 24.9375 17.0317C24.9375 16.7071 25.2031 16.4444 25.5312 16.4444H32.0625C32.3907 16.4444 32.6562 16.7071 32.6562 17.0317ZM32.6562 19.3809C32.6562 19.7056 32.3907 19.9682 32.0625 19.9682H27.3119C26.9837 19.9682 26.7182 19.7056 26.7182 19.3809C26.7182 19.0563 26.9837 18.7936 27.3119 18.7936H32.0625C32.3907 18.7936 32.6562 19.0563 32.6562 19.3809ZM33.076 28.6057L30.1073 31.5422C29.9913 31.6569 29.8394 31.7143 29.6875 31.7143C29.5356 31.7143 29.3837 31.6569 29.2677 31.5422L27.4865 29.7803C27.2545 29.5509 27.2545 29.1792 27.4865 28.9498C27.7184 28.7204 28.0941 28.7204 28.326 28.9498L29.6875 30.2965L32.2365 27.7752C32.4684 27.5458 32.8441 27.5458 33.076 27.7752C33.308 28.0046 33.308 28.3763 33.076 28.6057Z" fill="#21529A" style="fill:#21529A;fill:color(display-p3 0.1294 0.3216 0.6039);fill-opacity:1;"/>
</g>
<defs>
<clipPath id="clip0_3320_1485">
<rect width="38" height="37" fill="white" style="fill:white;fill-opacity:1;"/>
</clipPath>
</defs>
</svg>
