<svg width="75" height="75" viewBox="0 0 75 75" fill="none" xmlns="http://www.w3.org/2000/svg">
<path d="M33.4195 67H25.3497C25.0558 67.0005 24.7706 66.9001 24.5412 66.7153C24.3119 66.5305 24.1523 66.2726 24.0888 65.9841C23.7139 64.2772 22.8404 60.8747 21.5809 59.3788C20.0113 57.6148 18.2642 56.0189 16.3675 54.6167C14.589 53.1557 13.0434 51.4299 11.7842 49.4991C11.5405 49.1346 11.3146 48.7731 11.1125 48.4176C9.4124 45.2932 8.44364 41.8203 8.27986 38.263L8.26797 38.0957C8.23825 37.6625 8.20853 37.2293 8.17583 36.7932C7.99558 34.9087 7.91918 33.0157 7.94697 31.1228C7.95885 30.7793 7.95886 30.4088 7.95588 30.0264V29.9876C7.9048 28.8186 8.00976 27.6481 8.26797 26.5071C8.48198 25.7752 9.25477 24.4427 10.6518 24.6339C12.343 24.87 12.5927 26.8089 12.5927 26.8328L12.8572 28.1174C13.0604 28.0891 13.2672 28.1054 13.4635 28.1652C13.8076 28.3215 14.116 28.5472 14.3696 28.8283C14.6232 29.1095 14.8166 29.44 14.9378 29.7994C14.9824 29.9069 15.1072 30.4566 15.2053 30.8928C15.4761 30.899 15.7417 30.9686 15.9811 31.096C16.9471 31.6068 17.3721 32.9452 17.4791 33.3485L17.7109 37.6924C17.0653 37.0555 16.2344 36.6422 15.3391 36.5123C14.5992 36.4185 13.8485 36.5539 13.1873 36.9003C12.526 37.2468 11.9857 37.7879 11.6386 38.4512C11.4114 38.9848 11.3043 39.5621 11.3248 40.1421C11.3454 40.722 11.4931 41.2903 11.7574 41.8062C12.5852 43.7002 13.6392 45.486 14.8962 47.124C15.8874 48.4396 17.0581 49.6082 18.3738 50.5955C18.6263 50.7855 18.8806 50.9694 19.1366 51.1472C19.2269 51.2098 19.3288 51.2535 19.4362 51.2757C19.5436 51.298 19.6544 51.2983 19.7619 51.2766C19.8695 51.255 19.9716 51.2119 20.0623 51.1498C20.1529 51.0877 20.2302 51.008 20.2896 50.9153C20.4044 50.7368 20.4457 50.5204 20.4047 50.3118C20.3637 50.1033 20.2436 49.9189 20.0699 49.7977C19.8301 49.6303 19.5917 49.457 19.3546 49.278C18.1603 48.3828 17.0977 47.3228 16.198 46.1292C15.0229 44.5975 14.0368 42.9282 13.2614 41.1579C13.0996 40.8541 13.0026 40.5197 12.9765 40.1761C12.9504 39.8325 12.9958 39.4872 13.1098 39.1623C13.313 38.813 13.6127 38.5305 13.9725 38.3491C14.3324 38.1677 14.7369 38.0953 15.1369 38.1405C16.2902 38.2869 17.0778 39.3505 17.5742 40.1362C19.2833 42.8489 20.1274 43.3777 20.2612 43.4494C20.7635 43.6077 26.9072 45.6034 29.2821 49.1824C29.9211 49.992 33.1698 54.4375 34.1774 62.2468L34.6946 65.5002C34.7239 65.6855 34.7129 65.8749 34.6623 66.0555C34.6117 66.236 34.5227 66.4033 34.4014 66.5459C34.2802 66.6885 34.1296 66.803 33.9601 66.8814C33.7906 66.9598 33.6061 67.0002 33.4195 67Z" fill="#21529A" style="fill:#21529A;fill:color(display-p3 0.1294 0.3216 0.6039);fill-opacity:1;"/>
<path d="M41.5782 67H49.648C49.9419 67.0005 50.2272 66.9001 50.4565 66.7153C50.6858 66.5305 50.8455 66.2726 50.9089 65.9841C51.2838 64.2772 52.1574 60.8747 53.4169 59.3788C54.9864 57.6148 56.7336 56.0189 58.6303 54.6167C60.4087 53.1557 61.9544 51.4299 63.2136 49.4991C63.4573 49.1346 63.6832 48.7731 63.8853 48.4176C65.5853 45.2932 66.5541 41.8203 66.7179 38.263L66.7298 38.0957C66.7595 37.6625 66.7892 37.2293 66.8219 36.7932C67.0022 34.9087 67.0786 33.0157 67.0508 31.1228C67.0389 30.7793 67.0389 30.4088 67.0419 30.0264V29.9876C67.0929 28.8186 66.988 27.6481 66.7298 26.5071C66.5158 25.7752 65.743 24.4427 64.346 24.6339C62.6548 24.87 62.4051 26.8089 62.4051 26.8328L62.1406 28.1174C61.9374 28.0891 61.7305 28.1054 61.5342 28.1652C61.1902 28.3215 60.8818 28.5472 60.6282 28.8283C60.3746 29.1095 60.1811 29.44 60.0599 29.7994C60.0154 29.9069 59.8905 30.4566 59.7924 30.8928C59.5217 30.899 59.256 30.9686 59.0167 31.096C58.0507 31.6068 57.6256 32.9452 57.5186 33.3485L57.2868 37.6924C57.9325 37.0555 58.7633 36.6422 59.6587 36.5123C60.3985 36.4185 61.1492 36.5539 61.8105 36.9003C62.4717 37.2468 63.0121 37.7879 63.3592 38.4512C63.5863 38.9848 63.6935 39.5621 63.6729 40.1421C63.6524 40.722 63.5046 41.2903 63.2403 41.8062C62.4126 43.7002 61.3586 45.486 60.1016 47.124C59.1103 48.4396 57.9396 49.6082 56.624 50.5955C56.3714 50.7855 56.1171 50.9694 55.8612 51.1472C55.7709 51.2098 55.669 51.2535 55.5616 51.2757C55.4541 51.298 55.3433 51.2983 55.2358 51.2766C55.1283 51.255 55.0261 51.2119 54.9355 51.1498C54.8448 51.0877 54.7676 51.008 54.7082 50.9153C54.5934 50.7368 54.5521 50.5204 54.5931 50.3118C54.6341 50.1033 54.7541 49.9189 54.9279 49.7977C55.1677 49.6303 55.4061 49.457 55.6431 49.278C56.8374 48.3828 57.9001 47.3228 58.7997 46.1292C59.9749 44.5975 60.9609 42.9282 61.7363 41.1579C61.8981 40.8541 61.9951 40.5197 62.0212 40.1761C62.0473 39.8325 62.0019 39.4872 61.8879 39.1623C61.6848 38.813 61.385 38.5305 61.0252 38.3491C60.6653 38.1677 60.2608 38.0953 59.8608 38.1405C58.7076 38.2869 57.9199 39.3505 57.4235 40.1362C55.7145 42.8489 54.8703 43.3777 54.7366 43.4494C54.2343 43.6077 48.0905 45.6034 45.7157 49.1824C45.0766 49.992 41.8279 54.4375 40.8203 62.2468L40.3031 65.5002C40.2738 65.6855 40.2848 65.8749 40.3355 66.0555C40.3861 66.236 40.4751 66.4033 40.5963 66.5459C40.7175 66.6885 40.8681 66.803 41.0376 66.8814C41.2072 66.9598 41.3916 67.0002 41.5782 67Z" fill="#21529A" style="fill:#21529A;fill:color(display-p3 0.1294 0.3216 0.6039);fill-opacity:1;"/>
<path d="M31.1215 33.5385L24.6719 41.8015C27.0195 42.785 29.1497 44.1422 30.9593 45.8077L35.8257 39.571L31.1215 33.5385Z" fill="#21529A" style="fill:#21529A;fill:color(display-p3 0.1294 0.3216 0.6039);fill-opacity:1;"/>
<path d="M41.993 30.5817L37.5283 24.5709L34.8298 20.9308C34.471 20.4532 34.2582 19.8916 34.2148 19.3074C34.1714 18.7233 34.299 18.1391 34.5836 17.6189C34.8403 17.1153 35.2394 16.6885 35.7367 16.3856C36.2341 16.0826 36.8104 15.9152 37.4021 15.9019H37.6575C38.2498 15.9144 38.827 16.0813 39.325 16.3844C39.823 16.6874 40.2225 17.1147 40.4791 17.6189C40.7635 18.1385 40.8913 18.722 40.8484 19.3055C40.8055 19.8891 40.5937 20.4503 40.236 20.9279L39.7591 21.567L44.2207 27.5807L46.2207 24.8876C47.3327 23.3882 47.9935 21.6322 48.1328 19.8065C48.272 17.9807 47.8845 16.1535 47.0115 14.5191C46.1703 12.8963 44.8725 11.5232 43.2601 10.5502C41.6477 9.57716 39.783 9.04162 37.8698 9.00218C37.6452 8.99927 37.4175 8.99927 37.1929 9.00218C35.2798 9.04162 33.415 9.57716 31.8026 10.5502C30.1902 11.5232 28.8924 12.8963 28.0512 14.5191C27.1782 16.154 26.7908 17.9817 26.93 19.8079C27.0693 21.6341 27.73 23.3905 28.842 24.8905L31.242 28.124L33.0636 30.5788L37.5252 36.5925L44.3622 45.8077C46.0805 44.1504 48.1004 42.7983 50.3254 41.816L41.993 30.5817Z" fill="#21529A" style="fill:#21529A;fill:color(display-p3 0.1294 0.3216 0.6039);fill-opacity:1;"/>
</svg>
