<svg width="75" height="75" viewBox="0 0 75 75" fill="none" xmlns="http://www.w3.org/2000/svg">
<path d="M32.2788 52.7867C31.4121 52.32 31.7188 52.5067 20.9988 51.1467C20.2134 51.1587 19.448 51.3957 18.7933 51.8296C18.1386 52.2634 17.622 52.876 17.3048 53.5945C16.9876 54.3131 16.8832 55.1075 17.0038 55.8836C17.1244 56.6597 17.4651 57.385 17.9854 57.9733C18.4609 58.3969 19.0196 58.7165 19.6258 58.9116C20.2319 59.1068 20.8721 59.1732 21.5054 59.1067C21.8542 59.0519 22.2103 59.0668 22.5532 59.1507C22.8961 59.2346 23.2189 59.3857 23.5029 59.5954C23.787 59.805 24.0265 60.0689 24.2078 60.3718C24.389 60.6747 24.5083 61.0106 24.5588 61.36L24.7188 62.5467C25.2654 66.2 30.7988 64.36 33.9454 66.44C34.4712 66.8491 35.0498 67.1855 35.6654 67.44V54.3333C34.4794 53.9534 33.3426 53.4342 32.2788 52.7867Z" fill="#21529A" style="fill:#21529A;fill:color(display-p3 0.1294 0.3216 0.6039);fill-opacity:1;"/>
<path d="M52.494 59.1067C53.1273 59.1732 53.7675 59.1068 54.3736 58.9116C54.9798 58.7165 55.5385 58.3969 56.014 57.9733C56.5343 57.385 56.875 56.6597 56.9956 55.8836C57.1162 55.1075 57.0118 54.3131 56.6946 53.5945C56.3774 52.876 55.8609 52.2634 55.2061 51.8296C54.5514 51.3957 53.786 51.1587 53.0007 51.1467C40.4273 52.7467 43.4407 51.9333 39.3873 53.9467C39.0536 54.1188 38.6998 54.2487 38.334 54.3333V67.4533C38.9474 67.1943 39.5254 66.8582 40.054 66.4533C41.454 65.5333 42.614 65.5467 47.0807 64.8133C49.054 64.4667 49.2673 62.6933 49.4407 61.3733C49.4895 61.0228 49.6076 60.6854 49.7882 60.381C49.9687 60.0766 50.2081 59.8111 50.4923 59.6001C50.7765 59.3891 51.0999 59.2369 51.4435 59.1521C51.7872 59.0674 52.1443 59.052 52.494 59.1067Z" fill="#21529A" style="fill:#21529A;fill:color(display-p3 0.1294 0.3216 0.6039);fill-opacity:1;"/>
<path d="M21.9188 61.7333C21.6326 61.7836 21.3427 61.8103 21.0521 61.8133C19.2936 62.5585 17.6504 63.5507 16.1721 64.76C15.9519 64.9309 15.7908 65.1665 15.7114 65.4338C15.6321 65.701 15.6385 65.9864 15.7297 66.2498C15.8209 66.5132 15.9924 66.7413 16.2201 66.9022C16.4477 67.0631 16.7201 67.1486 16.9988 67.1467C17.8655 67.1467 19.2388 65.36 22.3988 64.1333C22.1381 63.3568 21.9768 62.5504 21.9188 61.7333Z" fill="#21529A" style="fill:#21529A;fill:color(display-p3 0.1294 0.3216 0.6039);fill-opacity:1;"/>
<path d="M52.998 61.8134C51.9847 61.8134 52.278 61.4667 51.998 62.72C51.9323 63.2019 51.8022 63.6727 51.6113 64.12C53.2762 64.7683 54.832 65.6676 56.2247 66.7867C56.5023 67.0059 56.8556 67.1059 57.2069 67.0647C57.5582 67.0234 57.8788 66.8443 58.098 66.5667C58.3172 66.2891 58.4172 65.9358 58.376 65.5845C58.3347 65.2331 58.1556 64.9126 57.878 64.6934C56.3956 63.5075 54.7526 62.5379 52.998 61.8134Z" fill="#21529A" style="fill:#21529A;fill:color(display-p3 0.1294 0.3216 0.6039);fill-opacity:1;"/>
<path d="M32.4795 48.6667C31.7995 48.2134 31.6928 48.2934 26.4928 47.4267C25.6661 47.2934 26.2928 46.9067 25.4395 49.0134C33.3595 50 31.7061 49.52 35.6661 51.4934V50.16C34.5089 49.8971 33.422 49.3878 32.4795 48.6667Z" fill="#21529A" style="fill:#21529A;fill:color(display-p3 0.1294 0.3216 0.6039);fill-opacity:1;"/>
<path d="M48.5577 49C48.3312 48.4449 48.1441 47.8746 47.9977 47.2933C47.651 47.4133 47.8244 47.36 42.571 48.24C41.9444 48.32 41.6644 48.56 40.691 49.2C38.0244 50.96 38.331 49.1066 38.331 51.48C42.331 49.5333 40.571 50.0133 48.5577 49Z" fill="#21529A" style="fill:#21529A;fill:color(display-p3 0.1294 0.3216 0.6039);fill-opacity:1;"/>
<path d="M32.2788 32.7867C31.4121 32.32 31.7188 32.5067 20.9988 31.1467C20.2134 31.1587 19.448 31.3957 18.7933 31.8296C18.1386 32.2634 17.622 32.876 17.3048 33.5945C16.9876 34.3131 16.8832 35.1075 17.0038 35.8836C17.1244 36.6597 17.4651 37.385 17.9854 37.9733C18.4609 38.3969 19.0196 38.7165 19.6258 38.9116C20.2319 39.1068 20.8721 39.1732 21.5054 39.1067C21.8542 39.0519 22.2103 39.0668 22.5532 39.1507C22.8961 39.2346 23.2189 39.3857 23.5029 39.5954C23.787 39.805 24.0265 40.0689 24.2078 40.3718C24.389 40.6747 24.5083 41.0106 24.5588 41.36L24.7188 42.5467C25.2654 46.2 30.7988 44.36 33.9454 46.44C34.4712 46.8491 35.0498 47.1855 35.6654 47.44V34.3333C34.4794 33.9534 33.3426 33.4342 32.2788 32.7867Z" fill="#21529A" style="fill:#21529A;fill:color(display-p3 0.1294 0.3216 0.6039);fill-opacity:1;"/>
<path d="M40.054 46.44C41.454 45.52 42.614 45.5333 47.0807 44.8C49.054 44.4533 49.2673 42.68 49.4407 41.36C49.4911 41.0106 49.6104 40.6747 49.7916 40.3718C49.9729 40.0689 50.2125 39.805 50.4965 39.5954C50.7805 39.3857 51.1033 39.2346 51.4462 39.1507C51.7891 39.0668 52.1453 39.0519 52.494 39.1067C53.1273 39.1732 53.7675 39.1068 54.3736 38.9116C54.9798 38.7165 55.5385 38.3969 56.014 37.9733C56.5343 37.385 56.875 36.6597 56.9956 35.8836C57.1162 35.1075 57.0118 34.3131 56.6946 33.5945C56.3774 32.876 55.8609 32.2634 55.2061 31.8296C54.5514 31.3957 53.786 31.1587 53.0007 31.1467C42.7073 32.48 42.6407 32.2933 41.7207 32.7867C40.6574 33.4353 39.5205 33.9546 38.334 34.3333V47.4533C38.9481 47.1901 39.5261 46.8496 40.054 46.44Z" fill="#21529A" style="fill:#21529A;fill:color(display-p3 0.1294 0.3216 0.6039);fill-opacity:1;"/>
<path d="M16.9988 47.1467C17.8655 47.1467 19.2388 45.36 22.3988 44.1333C22.1381 43.3568 21.9768 42.5504 21.9188 41.7333C21.6326 41.7836 21.3427 41.8103 21.0521 41.8133C19.2936 42.5585 17.6504 43.5507 16.1721 44.76C15.9519 44.9309 15.7908 45.1665 15.7114 45.4338C15.6321 45.701 15.6385 45.9864 15.7297 46.2498C15.8209 46.5132 15.9924 46.7414 16.2201 46.9022C16.4477 47.0631 16.7201 47.1486 16.9988 47.1467Z" fill="#21529A" style="fill:#21529A;fill:color(display-p3 0.1294 0.3216 0.6039);fill-opacity:1;"/>
<path d="M52.998 41.8134C51.9847 41.8134 52.278 41.4667 51.998 42.72C51.9323 43.2019 51.8022 43.6727 51.6113 44.12C53.2803 44.7888 54.8364 45.7107 56.2247 46.8534C56.5023 47.0726 56.8556 47.1726 57.2069 47.1313C57.5582 47.0901 57.8788 46.9109 58.098 46.6334C58.3172 46.3558 58.4172 46.0024 58.376 45.6511C58.3347 45.2998 58.1556 44.9793 57.878 44.76C56.3997 43.5507 54.7565 42.5585 52.998 41.8134Z" fill="#21529A" style="fill:#21529A;fill:color(display-p3 0.1294 0.3216 0.6039);fill-opacity:1;"/>
<path d="M32.4772 28.6667C31.7972 28.2133 31.6905 28.2933 26.4905 27.4267C25.5972 27.28 26.3172 26.9733 25.4238 29.0133C33.4238 30.0133 31.7172 29.5333 35.6638 31.4933V30.16C34.5066 29.8971 33.4197 29.3878 32.4772 28.6667Z" fill="#21529A" style="fill:#21529A;fill:color(display-p3 0.1294 0.3216 0.6039);fill-opacity:1;"/>
<path d="M48.5577 29C48.3312 28.4495 48.1441 27.8836 47.9977 27.3066C47.5844 27.4133 48.0777 27.3066 42.571 28.24C41.9444 28.32 41.6644 28.56 40.691 29.2C38.0244 30.96 38.331 29.1066 38.331 31.48C42.331 29.5333 40.571 30.0133 48.5577 29Z" fill="#21529A" style="fill:#21529A;fill:color(display-p3 0.1294 0.3216 0.6039);fill-opacity:1;"/>
<path d="M32.2788 12.7867C31.4121 12.32 31.6654 12.5067 20.9988 11.1467C20.2134 11.1587 19.448 11.3957 18.7933 11.8296C18.1386 12.2634 17.622 12.876 17.3048 13.5945C16.9876 14.3131 16.8832 15.1075 17.0038 15.8836C17.1244 16.6597 17.4651 17.385 17.9854 17.9733C18.4609 18.3969 19.0196 18.7165 19.6258 18.9116C20.2319 19.1068 20.8721 19.1732 21.5054 19.1067C21.8542 19.0519 22.2103 19.0668 22.5532 19.1507C22.8961 19.2346 23.2189 19.3857 23.5029 19.5954C23.787 19.805 24.0265 20.0689 24.2078 20.3718C24.389 20.6747 24.5083 21.0106 24.5588 21.36L24.7188 22.5467C25.2654 26.2 30.7988 24.36 33.9454 26.44C34.4712 26.8491 35.0498 27.1855 35.6654 27.44V14.3333C34.4794 13.9534 33.3426 13.4342 32.2788 12.7867Z" fill="#21529A" style="fill:#21529A;fill:color(display-p3 0.1294 0.3216 0.6039);fill-opacity:1;"/>
<path d="M40.054 26.44C41.454 25.52 42.614 25.5333 47.0807 24.8C49.054 24.4533 49.2673 22.68 49.4407 21.36C49.4911 21.0106 49.6104 20.6747 49.7916 20.3718C49.9729 20.0689 50.2125 19.805 50.4965 19.5954C50.7805 19.3857 51.1033 19.2346 51.4462 19.1507C51.7891 19.0668 52.1453 19.0519 52.494 19.1067C53.1273 19.1732 53.7675 19.1068 54.3736 18.9116C54.9798 18.7165 55.5385 18.3969 56.014 17.9733C56.5343 17.385 56.875 16.6597 56.9956 15.8836C57.1162 15.1075 57.0118 14.3131 56.6946 13.5945C56.3774 12.876 55.8609 12.2634 55.2061 11.8296C54.5514 11.3957 53.786 11.1587 53.0007 11.1467C42.7073 12.48 42.6407 12.2933 41.7207 12.7867C40.6574 13.4353 39.5205 13.9546 38.334 14.3333V27.4533C38.9481 27.1901 39.5261 26.8496 40.054 26.44Z" fill="#21529A" style="fill:#21529A;fill:color(display-p3 0.1294 0.3216 0.6039);fill-opacity:1;"/>
<path d="M16.9988 27.1467C17.8655 27.1467 19.2388 25.36 22.3988 24.1333C22.1381 23.3568 21.9768 22.5504 21.9188 21.7333C21.6326 21.7836 21.3427 21.8103 21.0521 21.8133C19.2936 22.5585 17.6504 23.5507 16.1721 24.76C15.9519 24.9309 15.7908 25.1665 15.7114 25.4338C15.6321 25.701 15.6385 25.9864 15.7297 26.2498C15.8209 26.5132 15.9924 26.7414 16.2201 26.9022C16.4477 27.0631 16.7201 27.1486 16.9988 27.1467Z" fill="#21529A" style="fill:#21529A;fill:color(display-p3 0.1294 0.3216 0.6039);fill-opacity:1;"/>
<path d="M52.1605 21.76C52.0426 22.5653 51.8415 23.3562 51.5605 24.12C55.0005 25.4533 55.9205 27.1467 57.0005 27.1467C57.2793 27.1486 57.5516 27.0631 57.7793 26.9022C58.0069 26.7414 58.1784 26.5132 58.2697 26.2498C58.3609 25.9864 58.3673 25.701 58.2879 25.4338C58.2086 25.1665 58.0474 24.9309 57.8272 24.76C56.3654 23.555 54.7404 22.563 53.0005 21.8133C52.7198 21.8107 52.4394 21.7929 52.1605 21.76Z" fill="#21529A" style="fill:#21529A;fill:color(display-p3 0.1294 0.3216 0.6039);fill-opacity:1;"/>
<path d="M25.4395 9.00001C33.3595 9.98668 31.7061 9.50668 35.6661 11.48V6.33334H26.1861C26.0492 7.24984 25.7984 8.14566 25.4395 9.00001Z" fill="#21529A" style="fill:#21529A;fill:color(display-p3 0.1294 0.3216 0.6039);fill-opacity:1;"/>
<path d="M48.5606 9.00001C48.2018 8.14566 47.9509 7.24984 47.814 6.33334H38.334V11.4933C42.334 9.53334 40.574 10.0133 48.5606 9.00001Z" fill="#21529A" style="fill:#21529A;fill:color(display-p3 0.1294 0.3216 0.6039);fill-opacity:1;"/>
</svg>
